solid OpenSCAD_Model
  facet normal 1 0 0
    outer loop
      vertex 14 7.2 5.5
      vertex 14 -7.2 5.5
      vertex 14 7.2 2.5
    endloop
  endfacet
  facet normal 1 -0 0
    outer loop
      vertex 14 7.2 2.5
      vertex 14 10 0
      vertex 14 10 2.5
    endloop
  endfacet
  facet normal 1 0 0
    outer loop
      vertex 14 -7.2 2.5
      vertex 14 7.2 2.5
      vertex 14 -7.2 5.5
    endloop
  endfacet
  facet normal 1 0 0
    outer loop
      vertex 14 7.2 2.5
      vertex 14 -7.2 2.5
      vertex 14 10 0
    endloop
  endfacet
  facet normal 1 0 0
    outer loop
      vertex 14 -10 0
      vertex 14 -7.2 2.5
      vertex 14 -10 2.5
    endloop
  endfacet
  facet normal 1 0 0
    outer loop
      vertex 14 -7.2 2.5
      vertex 14 -10 0
      vertex 14 10 0
    endloop
  endfacet
  facet normal 0 0 1
    outer loop
      vertex 14 10 2.5
      vertex 12 7.2 2.5
      vertex 14 7.2 2.5
    endloop
  endfacet
  facet normal 0 0 1
    outer loop
      vertex 12 7.2 2.5
      vertex 11.2 7.2 2.5
      vertex 12 -7.2 2.5
    endloop
  endfacet
  facet normal 0 0 1
    outer loop
      vertex 14 10 2.5
      vertex 11.2 7.2 2.5
      vertex 12 7.2 2.5
    endloop
  endfacet
  facet normal 0 0 1
    outer loop
      vertex 14 10 2.5
      vertex -11.2 7.2 2.5
      vertex 11.2 7.2 2.5
    endloop
  endfacet
  facet normal 0 0 1
    outer loop
      vertex -11.2 7.2 2.5
      vertex -12 7.2 2.5
      vertex -11.2 -7.2 2.5
    endloop
  endfacet
  facet normal -0 0 1
    outer loop
      vertex -14 10 2.5
      vertex -11.2 7.2 2.5
      vertex 14 10 2.5
    endloop
  endfacet
  facet normal 0 0 1
    outer loop
      vertex -11.2 7.2 2.5
      vertex -14 10 2.5
      vertex -12 7.2 2.5
    endloop
  endfacet
  facet normal 0 0 1
    outer loop
      vertex -12 7.2 2.5
      vertex -14 10 2.5
      vertex -14 7.2 2.5
    endloop
  endfacet
  facet normal -0 0 1
    outer loop
      vertex 12 -7.2 2.5
      vertex 14 -10 2.5
      vertex 14 -7.2 2.5
    endloop
  endfacet
  facet normal 0 0 1
    outer loop
      vertex 11.2 -7.2 2.5
      vertex 12 -7.2 2.5
      vertex 11.2 7.2 2.5
    endloop
  endfacet
  facet normal -0 0 1
    outer loop
      vertex 11.2 -7.2 2.5
      vertex 14 -10 2.5
      vertex 12 -7.2 2.5
    endloop
  endfacet
  facet normal 0 0 1
    outer loop
      vertex 6 -10 2.5
      vertex 11.2 -7.2 2.5
      vertex 6 -7.2 2.5
    endloop
  endfacet
  facet normal 0 0 1
    outer loop
      vertex 11.2 -7.2 2.5
      vertex 6 -10 2.5
      vertex 14 -10 2.5
    endloop
  endfacet
  facet normal -0 0 1
    outer loop
      vertex -11.2 -7.2 2.5
      vertex -6 -10 2.5
      vertex -6 -7.2 2.5
    endloop
  endfacet
  facet normal 0 0 1
    outer loop
      vertex -12 -7.2 2.5
      vertex -11.2 -7.2 2.5
      vertex -12 7.2 2.5
    endloop
  endfacet
  facet normal 0 0 1
    outer loop
      vertex -14 -10 2.5
      vertex -11.2 -7.2 2.5
      vertex -12 -7.2 2.5
    endloop
  endfacet
  facet normal 0 0 1
    outer loop
      vertex -14 -10 2.5
      vertex -12 -7.2 2.5
      vertex -14 -7.2 2.5
    endloop
  endfacet
  facet normal 0 0 1
    outer loop
      vertex -11.2 -7.2 2.5
      vertex -14 -10 2.5
      vertex -6 -10 2.5
    endloop
  endfacet
  facet normal 0 0 -1
    outer loop
      vertex -6 -10 0
      vertex -14 -10 0
      vertex -6 -6.1 0
    endloop
  endfacet
  facet normal 0 0 -1
    outer loop
      vertex 6 -6.1 0
      vertex 14 -10 0
      vertex 6 -10 0
    endloop
  endfacet
  facet normal 0 0 -1
    outer loop
      vertex 14 -10 0
      vertex 6 -6.1 0
      vertex 14 10 0
    endloop
  endfacet
  facet normal 0 0 -1
    outer loop
      vertex -6 -6.1 0
      vertex 14 10 0
      vertex 6 -6.1 0
    endloop
  endfacet
  facet normal 0 0 -1
    outer loop
      vertex -14 10 0
      vertex -6 -6.1 0
      vertex -14 -10 0
    endloop
  endfacet
  facet normal 0 0 -1
    outer loop
      vertex -6 -6.1 0
      vertex -14 10 0
      vertex 14 10 0
    endloop
  endfacet
  facet normal -1 0 0
    outer loop
      vertex -14 10 0
      vertex -14 7.2 2.5
      vertex -14 10 2.5
    endloop
  endfacet
  facet normal -1 0 0
    outer loop
      vertex -14 7.2 2.5
      vertex -14 -7.2 2.5
      vertex -14 7.2 5.5
    endloop
  endfacet
  facet normal -1 0 0
    outer loop
      vertex -14 10 0
      vertex -14 -7.2 2.5
      vertex -14 7.2 2.5
    endloop
  endfacet
  facet normal -1 0 0
    outer loop
      vertex -14 -10 0
      vertex -14 -7.2 2.5
      vertex -14 10 0
    endloop
  endfacet
  facet normal -1 -0 0
    outer loop
      vertex -14 -7.2 2.5
      vertex -14 -10 0
      vertex -14 -10 2.5
    endloop
  endfacet
  facet normal -1 -0 0
    outer loop
      vertex -14 7.2 5.5
      vertex -14 -7.2 2.5
      vertex -14 -7.2 5.5
    endloop
  endfacet
  facet normal 0 1 -0
    outer loop
      vertex 14 10 0
      vertex -14 10 2.5
      vertex 14 10 2.5
    endloop
  endfacet
  facet normal 0 1 0
    outer loop
      vertex -14 10 2.5
      vertex 14 10 0
      vertex -14 10 0
    endloop
  endfacet
  facet normal 0 -1 0
    outer loop
      vertex -14 -10 0
      vertex -6 -10 2.5
      vertex -14 -10 2.5
    endloop
  endfacet
  facet normal 0 -1 -0
    outer loop
      vertex -6 -10 2.5
      vertex -14 -10 0
      vertex -6 -10 0
    endloop
  endfacet
  facet normal 0 -1 0
    outer loop
      vertex 6 -10 0
      vertex 14 -10 2.5
      vertex 6 -10 2.5
    endloop
  endfacet
  facet normal 0 -1 -0
    outer loop
      vertex 14 -10 2.5
      vertex 6 -10 0
      vertex 14 -10 0
    endloop
  endfacet
  facet normal 1 -0 0
    outer loop
      vertex -12 -7.2 5.5
      vertex -12 7.2 2.5
      vertex -12 7.2 5.5
    endloop
  endfacet
  facet normal 1 0 0
    outer loop
      vertex -12 7.2 2.5
      vertex -12 -7.2 5.5
      vertex -12 -7.2 2.5
    endloop
  endfacet
  facet normal -0 0 1
    outer loop
      vertex -14 7.2 5.5
      vertex -12 -7.2 5.5
      vertex -12 7.2 5.5
    endloop
  endfacet
  facet normal 0 0 1
    outer loop
      vertex -12 -7.2 5.5
      vertex -14 7.2 5.5
      vertex -14 -7.2 5.5
    endloop
  endfacet
  facet normal 0 1 -0
    outer loop
      vertex -12 7.2 2.5
      vertex -14 7.2 5.5
      vertex -12 7.2 5.5
    endloop
  endfacet
  facet normal 0 1 0
    outer loop
      vertex -14 7.2 5.5
      vertex -12 7.2 2.5
      vertex -14 7.2 2.5
    endloop
  endfacet
  facet normal 0 -1 0
    outer loop
      vertex -14 -7.2 2.5
      vertex -12 -7.2 5.5
      vertex -14 -7.2 5.5
    endloop
  endfacet
  facet normal 0 -1 -0
    outer loop
      vertex -12 -7.2 5.5
      vertex -14 -7.2 2.5
      vertex -12 -7.2 2.5
    endloop
  endfacet
  facet normal -0 0 1
    outer loop
      vertex 12 7.2 5.5
      vertex 14 -7.2 5.5
      vertex 14 7.2 5.5
    endloop
  endfacet
  facet normal 0 0 1
    outer loop
      vertex 14 -7.2 5.5
      vertex 12 7.2 5.5
      vertex 12 -7.2 5.5
    endloop
  endfacet
  facet normal -1 0 0
    outer loop
      vertex 12 -7.2 2.5
      vertex 12 7.2 5.5
      vertex 12 7.2 2.5
    endloop
  endfacet
  facet normal -1 -0 0
    outer loop
      vertex 12 7.2 5.5
      vertex 12 -7.2 2.5
      vertex 12 -7.2 5.5
    endloop
  endfacet
  facet normal 0 1 -0
    outer loop
      vertex 14 7.2 2.5
      vertex 12 7.2 5.5
      vertex 14 7.2 5.5
    endloop
  endfacet
  facet normal 0 1 0
    outer loop
      vertex 12 7.2 5.5
      vertex 14 7.2 2.5
      vertex 12 7.2 2.5
    endloop
  endfacet
  facet normal 0 -1 0
    outer loop
      vertex 12 -7.2 2.5
      vertex 14 -7.2 5.5
      vertex 12 -7.2 5.5
    endloop
  endfacet
  facet normal 0 -1 -0
    outer loop
      vertex 14 -7.2 5.5
      vertex 12 -7.2 2.5
      vertex 14 -7.2 2.5
    endloop
  endfacet
  facet normal 1 -0 0
    outer loop
      vertex 11.2 5.2 5.5
      vertex 11.2 7.2 2.6
      vertex 11.2 7.2 5.5
    endloop
  endfacet
  facet normal 1 0 0
    outer loop
      vertex 11.2 7.2 2.6
      vertex 11.2 5.2 5.5
      vertex 11.2 5.2 2.6
    endloop
  endfacet
  facet normal -1 0 0
    outer loop
      vertex 11.2 -7.2 0.7
      vertex 11.2 7.2 2.5
      vertex 11.2 7.2 0.7
    endloop
  endfacet
  facet normal -1 -0 0
    outer loop
      vertex 11.2 7.2 2.5
      vertex 11.2 -7.2 0.7
      vertex 11.2 -7.2 2.5
    endloop
  endfacet
  facet normal -0 0 1
    outer loop
      vertex -11.2 7.2 5.5
      vertex 11.2 5.2 5.5
      vertex 11.2 7.2 5.5
    endloop
  endfacet
  facet normal 0 0 1
    outer loop
      vertex 11.2 5.2 5.5
      vertex -11.2 7.2 5.5
      vertex -11.2 5.2 5.5
    endloop
  endfacet
  facet normal -1 0 0
    outer loop
      vertex -11.2 5.2 2.6
      vertex -11.2 7.2 5.5
      vertex -11.2 7.2 2.6
    endloop
  endfacet
  facet normal -1 -0 0
    outer loop
      vertex -11.2 7.2 5.5
      vertex -11.2 5.2 2.6
      vertex -11.2 5.2 5.5
    endloop
  endfacet
  facet normal 1 -0 0
    outer loop
      vertex -11.2 -7.2 2.5
      vertex -11.2 7.2 0.7
      vertex -11.2 7.2 2.5
    endloop
  endfacet
  facet normal 1 0 0
    outer loop
      vertex -11.2 7.2 0.7
      vertex -11.2 -7.2 2.5
      vertex -11.2 -7.2 0.7
    endloop
  endfacet
  facet normal 0 1 -0
    outer loop
      vertex 11.2 7.2 2.6
      vertex -11.2 7.2 5.5
      vertex 11.2 7.2 5.5
    endloop
  endfacet
  facet normal 0 1 0
    outer loop
      vertex -11.2 7.2 5.5
      vertex 11.2 7.2 2.6
      vertex -11.2 7.2 2.6
    endloop
  endfacet
  facet normal 0 -1 0
    outer loop
      vertex -11.2 7.2 0.7
      vertex 11.2 7.2 2.5
      vertex -11.2 7.2 2.5
    endloop
  endfacet
  facet normal 0 -1 -0
    outer loop
      vertex 11.2 7.2 2.5
      vertex -11.2 7.2 0.7
      vertex 11.2 7.2 0.7
    endloop
  endfacet
  facet normal 0 -1 0
    outer loop
      vertex -11.2 5.2 2.6
      vertex 11.2 5.2 5.5
      vertex -11.2 5.2 5.5
    endloop
  endfacet
  facet normal 0 -1 -0
    outer loop
      vertex 11.2 5.2 5.5
      vertex -11.2 5.2 2.6
      vertex 11.2 5.2 2.6
    endloop
  endfacet
  facet normal 0 0 -1
    outer loop
      vertex -11.2 5.2 2.6
      vertex 11.2 7.2 2.6
      vertex 11.2 5.2 2.6
    endloop
  endfacet
  facet normal -0 0 -1
    outer loop
      vertex 11.2 7.2 2.6
      vertex -11.2 5.2 2.6
      vertex -11.2 7.2 2.6
    endloop
  endfacet
  facet normal 0 0 1
    outer loop
      vertex 11.2 7.2 0.7
      vertex 6 -6.1 0.7
      vertex 11.2 -7.2 0.7
    endloop
  endfacet
  facet normal 0 0 1
    outer loop
      vertex 11.2 7.2 0.7
      vertex -6 -6.1 0.7
      vertex 6 -6.1 0.7
    endloop
  endfacet
  facet normal -0 0 1
    outer loop
      vertex -11.2 7.2 0.7
      vertex -6 -6.1 0.7
      vertex 11.2 7.2 0.7
    endloop
  endfacet
  facet normal 0 0 1
    outer loop
      vertex -11.2 -7.2 0.7
      vertex -6 -6.1 0.7
      vertex -11.2 7.2 0.7
    endloop
  endfacet
  facet normal 0 0 1
    outer loop
      vertex -6 -6.1 0.7
      vertex -11.2 -7.2 0.7
      vertex -6 -7.2 0.7
    endloop
  endfacet
  facet normal 0 0 1
    outer loop
      vertex 11.2 -7.2 0.7
      vertex 6 -6.1 0.7
      vertex 6 -7.2 0.7
    endloop
  endfacet
  facet normal 0 1 -0
    outer loop
      vertex 11.2 -7.2 0.7
      vertex 6 -7.2 2.5
      vertex 11.2 -7.2 2.5
    endloop
  endfacet
  facet normal 0 1 0
    outer loop
      vertex 6 -7.2 2.5
      vertex 11.2 -7.2 0.7
      vertex 6 -7.2 0.7
    endloop
  endfacet
  facet normal 0 1 -0
    outer loop
      vertex -6 -7.2 0.7
      vertex -11.2 -7.2 2.5
      vertex -6 -7.2 2.5
    endloop
  endfacet
  facet normal 0 1 0
    outer loop
      vertex -11.2 -7.2 2.5
      vertex -6 -7.2 0.7
      vertex -11.2 -7.2 0.7
    endloop
  endfacet
  facet normal -1 0 0
    outer loop
      vertex 6 -6.1 0
      vertex 6 -7.2 0.7
      vertex 6 -6.1 0.7
    endloop
  endfacet
  facet normal -1 0 0
    outer loop
      vertex 6 -10 0
      vertex 6 -7.2 0.7
      vertex 6 -6.1 0
    endloop
  endfacet
  facet normal -1 0 0
    outer loop
      vertex 6 -10 2.5
      vertex 6 -7.2 0.7
      vertex 6 -10 0
    endloop
  endfacet
  facet normal -1 0 0
    outer loop
      vertex 6 -7.2 0.7
      vertex 6 -10 2.5
      vertex 6 -7.2 2.5
    endloop
  endfacet
  facet normal 1 0 0
    outer loop
      vertex -6 -7.2 2.5
      vertex -6 -10 2.5
      vertex -6 -7.2 0.7
    endloop
  endfacet
  facet normal 1 -0 0
    outer loop
      vertex -6 -7.2 0.7
      vertex -6 -6.1 0
      vertex -6 -6.1 0.7
    endloop
  endfacet
  facet normal 1 0 0
    outer loop
      vertex -6 -7.2 0.7
      vertex -6 -10 0
      vertex -6 -6.1 0
    endloop
  endfacet
  facet normal 1 0 0
    outer loop
      vertex -6 -10 0
      vertex -6 -7.2 0.7
      vertex -6 -10 2.5
    endloop
  endfacet
  facet normal 0 -1 0
    outer loop
      vertex -6 -6.1 0
      vertex 6 -6.1 0.7
      vertex -6 -6.1 0.7
    endloop
  endfacet
  facet normal 0 -1 -0
    outer loop
      vertex 6 -6.1 0.7
      vertex -6 -6.1 0
      vertex 6 -6.1 0
    endloop
  endfacet
endsolid OpenSCAD_Model
