<svg xmlns="http://www.w3.org/2000/svg" width="1100" height="650" viewBox="0 0 1100 650">
<rect width="1100" height="650" fill="white"/>
<style>
.t{font:22px Arial,sans-serif;fill:#111}.s{font:16px Arial,sans-serif;fill:#222}.d{stroke:#111;stroke-width:2;fill:none}.dim{stroke:#555;stroke-width:1.5;fill:none;marker-start:url(#a);marker-end:url(#a)}.c{stroke:#aaa;stroke-width:1;stroke-dasharray:6 6}
</style>
<defs><marker id="a" markerWidth="8" markerHeight="8" refX="4" refY="4" orient="auto"><path d="M0,4 L8,0 L8,8 Z" fill="#555"/></marker></defs>
<text x="40" y="40" class="t">ESP32 Artificial Horizon — Flight-development enclosure</text>
<text x="40" y="68" class="s">3⅛-in panel format • four-hole 62.9 mm square pattern • Ø4.4 mm mounting clearance • verify actual aircraft panel</text>
<text x="230" y="115" class="t">Front view</text>
<rect x="120" y="145" width="352" height="352" rx="20" class="d"/>
<circle cx="296" cy="321" r="107.2" class="d"/>
<line x1="296" y1="125" x2="296" y2="517" class="c"/>
<line x1="100" y1="321" x2="492" y2="321" class="c"/>
<g fill="white" stroke="#111" stroke-width="2"><circle cx="170.2" cy="195.2" r="8.8"/><circle cx="421.8" cy="195.2" r="8.8"/><circle cx="170.2" cy="446.8" r="8.8"/><circle cx="421.8" cy="446.8" r="8.8"/></g>
<text x="145" y="535" class="s">88 mm flange</text>
<text x="225" y="315" class="s">53.6 mm</text>
<text x="223" y="336" class="s">display opening</text>
<text x="140" y="181" class="s">Ø4.4</text>
<text x="720" y="115" class="t">Side section concept</text>
<path d="M650 175 L1002 175 L1002 407 L990 407 L990 419 L676 419 L676 191 L650 191 Z" class="d"/>
<line x1="650" y1="457" x2="1002" y2="457" class="dim"/>
<text x="805" y="485" class="s">58 mm body depth</text>
<line x1="630" y1="175" x2="630" y2="191" class="dim"/>
<text x="555" y="190" class="s">4 mm flange</text>
<text x="715" y="270" class="s">79.6 mm locating body</text>
<text x="715" y="300" class="s">80.3 mm target panel opening</text>
<text x="715" y="330" class="s">3.0 mm nominal wall</text>
<text x="715" y="360" class="s">rear removable cover + M3 bosses</text>
<rect x="40" y="565" width="1020" height="55" rx="8" fill="#f4f4f4" stroke="#aaa"/>
<text x="55" y="590" class="s">Important: flight-development CAD only. Verify actual Skyranger panel cutout, screw centres, depth, control clearances, material, fasteners,</text>
<text x="55" y="612" class="s">thermal behaviour, vibration resistance and installation approval before use in flight. Not an approved primary flight instrument.</text>
</svg>